<?xml version="1.0" encoding="UTF-8" standalone="no"?>
<!DOCTYPE svg PUBLIC "-//W3C//DTD SVG 1.1//EN"
 "http://www.w3.org/Graphics/SVG/1.1/DTD/svg11.dtd">
<!-- Generated by graphviz version 2.38.0 (20140413.2041)
 -->
<!-- Title: odph_api.h Pages: 1 -->
<svg width="1931pt" height="196pt"
 viewBox="0.00 0.00 1931.00 196.00" xmlns="http://www.w3.org/2000/svg" xmlns:xlink="http://www.w3.org/1999/xlink">
<g id="graph0" class="graph" transform="scale(1 1) rotate(0) translate(4 192)">
<title>odph_api.h</title>
<polygon fill="white" stroke="none" points="-4,4 -4,-192 1927,-192 1927,4 -4,4"/>
<!-- Node0 -->
<g id="node1" class="node"><title>Node0</title>
<polygon fill="#bfbfbf" stroke="black" points="1114,-168.5 1114,-187.5 1183,-187.5 1183,-168.5 1114,-168.5"/>
<text text-anchor="middle" x="1148.5" y="-175.5" font-family="Helvetica,sans-Serif" font-size="10.00">odph_api.h</text>
</g>
<!-- Node1 -->
<g id="node2" class="node"><title>Node1</title>
<g id="a_node2"><a xlink:href="odph__debug_8h.html" target="_top" xlink:title="Helper debug. ">
<polygon fill="white" stroke="black" points="60,-112.5 60,-131.5 199,-131.5 199,-112.5 60,-112.5"/>
<text text-anchor="middle" x="129.5" y="-119.5" font-family="Helvetica,sans-Serif" font-size="10.00">odp/helper/odph_debug.h</text>
</a>
</g>
</g>
<!-- Node0&#45;&gt;Node1 -->
<g id="edge1" class="edge"><title>Node0&#45;&gt;Node1</title>
<path fill="none" stroke="midnightblue" d="M1113.68,-175.865C991.587,-171.764 571.561,-156.645 225.5,-132 220.311,-131.63 214.967,-131.218 209.582,-130.778"/>
<polygon fill="midnightblue" stroke="midnightblue" points="209.464,-127.256 199.206,-129.904 208.877,-134.232 209.464,-127.256"/>
</g>
<!-- Node5 -->
<g id="node6" class="node"><title>Node5</title>
<g id="a_node6"><a xlink:href="chksum_8h.html" target="_top" xlink:title="ODP checksum helper. ">
<polygon fill="white" stroke="black" points="1090,-56.5 1090,-75.5 1207,-75.5 1207,-56.5 1090,-56.5"/>
<text text-anchor="middle" x="1148.5" y="-63.5" font-family="Helvetica,sans-Serif" font-size="10.00">odp/helper/chksum.h</text>
</a>
</g>
</g>
<!-- Node0&#45;&gt;Node5 -->
<g id="edge5" class="edge"><title>Node0&#45;&gt;Node5</title>
<path fill="none" stroke="midnightblue" d="M1148.5,-168.368C1148.5,-150.617 1148.5,-109.666 1148.5,-85.5974"/>
<polygon fill="midnightblue" stroke="midnightblue" points="1152,-85.5914 1148.5,-75.5914 1145,-85.5915 1152,-85.5914"/>
</g>
<!-- Node7 -->
<g id="node8" class="node"><title>Node7</title>
<g id="a_node8"><a xlink:href="odph__cuckootable_8h.html" target="_top" xlink:title="ODP Cuckoo Hash Table. ">
<polygon fill="white" stroke="black" points="671,-112.5 671,-131.5 838,-131.5 838,-112.5 671,-112.5"/>
<text text-anchor="middle" x="754.5" y="-119.5" font-family="Helvetica,sans-Serif" font-size="10.00">odp/helper/odph_cuckootable.h</text>
</a>
</g>
</g>
<!-- Node0&#45;&gt;Node7 -->
<g id="edge7" class="edge"><title>Node0&#45;&gt;Node7</title>
<path fill="none" stroke="midnightblue" d="M1113.88,-172.255C1049.91,-163.488 911.977,-144.583 826.818,-132.912"/>
<polygon fill="midnightblue" stroke="midnightblue" points="827.085,-129.416 816.702,-131.525 826.135,-136.351 827.085,-129.416"/>
</g>
<!-- Node8 -->
<g id="node9" class="node"><title>Node8</title>
<g id="a_node9"><a xlink:href="table_8h.html" target="_top" xlink:title="ODP table. ">
<polygon fill="white" stroke="black" points="514.5,-56.5 514.5,-75.5 618.5,-75.5 618.5,-56.5 514.5,-56.5"/>
<text text-anchor="middle" x="566.5" y="-63.5" font-family="Helvetica,sans-Serif" font-size="10.00">odp/helper/table.h</text>
</a>
</g>
</g>
<!-- Node0&#45;&gt;Node8 -->
<g id="edge33" class="edge"><title>Node0&#45;&gt;Node8</title>
<path fill="none" stroke="midnightblue" d="M1113.75,-176.485C957.357,-174.002 325.075,-162.124 296.5,-132 290.383,-125.551 290.754,-118.782 296.5,-112 322.593,-81.1982 432.969,-71.4602 504.268,-68.3941"/>
<polygon fill="midnightblue" stroke="midnightblue" points="504.635,-71.8824 514.489,-67.9885 504.358,-64.8879 504.635,-71.8824"/>
</g>
<!-- Node10 -->
<g id="node11" class="node"><title>Node10</title>
<g id="a_node11"><a xlink:href="strong__types_8h.html" target="_top" xlink:title="ODP Strong Types. ">
<polygon fill="white" stroke="black" points="331.5,-0.5 331.5,-19.5 473.5,-19.5 473.5,-0.5 331.5,-0.5"/>
<text text-anchor="middle" x="402.5" y="-7.5" font-family="Helvetica,sans-Serif" font-size="10.00">odp/helper/strong_types.h</text>
</a>
</g>
</g>
<!-- Node0&#45;&gt;Node10 -->
<g id="edge30" class="edge"><title>Node0&#45;&gt;Node10</title>
<path fill="none" stroke="midnightblue" d="M1113.95,-176.506C956.988,-174.096 317.382,-162.433 288.5,-132 251.295,-92.7976 329.518,-46.2038 374.208,-24.0079"/>
<polygon fill="midnightblue" stroke="midnightblue" points="375.974,-27.0412 383.445,-19.5286 372.92,-20.7427 375.974,-27.0412"/>
</g>
<!-- Node11 -->
<g id="node12" class="node"><title>Node11</title>
<g id="a_node12"><a xlink:href="eth_8h.html" target="_top" xlink:title="ODP ethernet header. ">
<polygon fill="white" stroke="black" points="1462,-56.5 1462,-75.5 1557,-75.5 1557,-56.5 1462,-56.5"/>
<text text-anchor="middle" x="1509.5" y="-63.5" font-family="Helvetica,sans-Serif" font-size="10.00">odp/helper/eth.h</text>
</a>
</g>
</g>
<!-- Node0&#45;&gt;Node11 -->
<g id="edge11" class="edge"><title>Node0&#45;&gt;Node11</title>
<path fill="none" stroke="midnightblue" d="M1183.2,-175.732C1276.62,-171.962 1528.03,-159.348 1552.5,-132 1566.61,-116.229 1547.43,-95.4663 1530.37,-81.6981"/>
<polygon fill="midnightblue" stroke="midnightblue" points="1532.39,-78.8389 1522.32,-75.5535 1528.14,-84.4032 1532.39,-78.8389"/>
</g>
<!-- Node12 -->
<g id="node13" class="node"><title>Node12</title>
<g id="a_node13"><a xlink:href="odph__hashtable_8h.html" target="_top" xlink:title="ODP Hash Table. ">
<polygon fill="white" stroke="black" points="305.5,-112.5 305.5,-131.5 461.5,-131.5 461.5,-112.5 305.5,-112.5"/>
<text text-anchor="middle" x="383.5" y="-119.5" font-family="Helvetica,sans-Serif" font-size="10.00">odp/helper/odph_hashtable.h</text>
</a>
</g>
</g>
<!-- Node0&#45;&gt;Node12 -->
<g id="edge13" class="edge"><title>Node0&#45;&gt;Node12</title>
<path fill="none" stroke="midnightblue" d="M1113.89,-175.154C1015.34,-169.802 724.56,-153.344 471.849,-132.086"/>
<polygon fill="midnightblue" stroke="midnightblue" points="472.001,-128.586 461.742,-131.231 471.411,-135.561 472.001,-128.586"/>
</g>
<!-- Node13 -->
<g id="node14" class="node"><title>Node13</title>
<g id="a_node14"><a xlink:href="icmp_8h.html" target="_top" xlink:title="ODP ICMP header. ">
<polygon fill="white" stroke="black" points="1820,-56.5 1820,-75.5 1923,-75.5 1923,-56.5 1820,-56.5"/>
<text text-anchor="middle" x="1871.5" y="-63.5" font-family="Helvetica,sans-Serif" font-size="10.00">odp/helper/icmp.h</text>
</a>
</g>
</g>
<!-- Node0&#45;&gt;Node13 -->
<g id="edge15" class="edge"><title>Node0&#45;&gt;Node13</title>
<path fill="none" stroke="midnightblue" d="M1183.17,-176.131C1291.52,-173.127 1622.69,-161.691 1725.5,-132 1743.84,-126.705 1746.23,-120.123 1763.5,-112 1788.84,-100.08 1818.22,-87.9459 1839.93,-79.2864"/>
<polygon fill="midnightblue" stroke="midnightblue" points="1841.31,-82.5023 1849.32,-75.5655 1838.74,-75.9943 1841.31,-82.5023"/>
</g>
<!-- Node14 -->
<g id="node15" class="node"><title>Node14</title>
<g id="a_node15"><a xlink:href="ip_8h.html" target="_top" xlink:title="ODP IP header. ">
<polygon fill="white" stroke="black" points="1032.5,-112.5 1032.5,-131.5 1120.5,-131.5 1120.5,-112.5 1032.5,-112.5"/>
<text text-anchor="middle" x="1076.5" y="-119.5" font-family="Helvetica,sans-Serif" font-size="10.00">odp/helper/ip.h</text>
</a>
</g>
</g>
<!-- Node0&#45;&gt;Node14 -->
<g id="edge17" class="edge"><title>Node0&#45;&gt;Node14</title>
<path fill="none" stroke="midnightblue" d="M1136.93,-168.324C1126.08,-160.185 1109.62,-147.839 1096.62,-138.087"/>
<polygon fill="midnightblue" stroke="midnightblue" points="1098.38,-135.034 1088.28,-131.834 1094.18,-140.634 1098.38,-135.034"/>
</g>
<!-- Node16 -->
<g id="node17" class="node"><title>Node16</title>
<g id="a_node17"><a xlink:href="ipsec_8h.html" target="_top" xlink:title="ODP IPSec headers. ">
<polygon fill="white" stroke="black" points="1263.5,-56.5 1263.5,-75.5 1367.5,-75.5 1367.5,-56.5 1263.5,-56.5"/>
<text text-anchor="middle" x="1315.5" y="-63.5" font-family="Helvetica,sans-Serif" font-size="10.00">odp/helper/ipsec.h</text>
</a>
</g>
</g>
<!-- Node0&#45;&gt;Node16 -->
<g id="edge21" class="edge"><title>Node0&#45;&gt;Node16</title>
<path fill="none" stroke="midnightblue" d="M1183.23,-172.979C1212.92,-167.926 1255.21,-156.692 1283.5,-132 1297.4,-119.873 1305.87,-100.315 1310.58,-85.8158"/>
<polygon fill="midnightblue" stroke="midnightblue" points="1314.02,-86.5017 1313.47,-75.9214 1307.3,-84.5383 1314.02,-86.5017"/>
</g>
<!-- Node17 -->
<g id="node18" class="node"><title>Node17</title>
<g id="a_node18"><a xlink:href="odph__lineartable_8h.html" target="_top" xlink:title="ODP Linear Table. ">
<polygon fill="white" stroke="black" points="856,-112.5 856,-131.5 1015,-131.5 1015,-112.5 856,-112.5"/>
<text text-anchor="middle" x="935.5" y="-119.5" font-family="Helvetica,sans-Serif" font-size="10.00">odp/helper/odph_lineartable.h</text>
</a>
</g>
</g>
<!-- Node0&#45;&gt;Node17 -->
<g id="edge23" class="edge"><title>Node0&#45;&gt;Node17</title>
<path fill="none" stroke="midnightblue" d="M1114.75,-168.444C1077.98,-159.122 1019.05,-144.183 978.878,-133.997"/>
<polygon fill="midnightblue" stroke="midnightblue" points="979.646,-130.581 969.093,-131.516 977.926,-137.367 979.646,-130.581"/>
</g>
<!-- Node18 -->
<g id="node19" class="node"><title>Node18</title>
<g id="a_node19"><a xlink:href="odph__iplookuptable_8h.html" target="_top" xlink:title="ODP IP Lookup Table. ">
<polygon fill="white" stroke="black" points="480,-112.5 480,-131.5 653,-131.5 653,-112.5 480,-112.5"/>
<text text-anchor="middle" x="566.5" y="-119.5" font-family="Helvetica,sans-Serif" font-size="10.00">odp/helper/odph_iplookuptable.h</text>
</a>
</g>
</g>
<!-- Node0&#45;&gt;Node18 -->
<g id="edge26" class="edge"><title>Node0&#45;&gt;Node18</title>
<path fill="none" stroke="midnightblue" d="M1113.96,-173.836C1035.75,-166.666 838.9,-148.586 663.415,-132.178"/>
<polygon fill="midnightblue" stroke="midnightblue" points="663.503,-128.671 653.221,-131.224 662.851,-135.64 663.503,-128.671"/>
</g>
<!-- Node19 -->
<g id="node20" class="node"><title>Node19</title>
<g id="a_node20"><a xlink:href="sctp_8h.html" target="_top" xlink:title="ODP SCTP header. ">
<polygon fill="white" stroke="black" points="1330.5,-112.5 1330.5,-131.5 1430.5,-131.5 1430.5,-112.5 1330.5,-112.5"/>
<text text-anchor="middle" x="1380.5" y="-119.5" font-family="Helvetica,sans-Serif" font-size="10.00">odp/helper/sctp.h</text>
</a>
</g>
</g>
<!-- Node0&#45;&gt;Node19 -->
<g id="edge28" class="edge"><title>Node0&#45;&gt;Node19</title>
<path fill="none" stroke="midnightblue" d="M1183.23,-168.916C1223.22,-159.608 1289.11,-144.272 1333.62,-133.912"/>
<polygon fill="midnightblue" stroke="midnightblue" points="1334.66,-137.262 1343.61,-131.587 1333.08,-130.445 1334.66,-137.262"/>
</g>
<!-- Node20 -->
<g id="node21" class="node"><title>Node20</title>
<g id="a_node21"><a xlink:href="tcp_8h.html" target="_top" xlink:title="ODP TCP header. ">
<polygon fill="white" stroke="black" points="1449,-112.5 1449,-131.5 1544,-131.5 1544,-112.5 1449,-112.5"/>
<text text-anchor="middle" x="1496.5" y="-119.5" font-family="Helvetica,sans-Serif" font-size="10.00">odp/helper/tcp.h</text>
</a>
</g>
</g>
<!-- Node0&#45;&gt;Node20 -->
<g id="edge31" class="edge"><title>Node0&#45;&gt;Node20</title>
<path fill="none" stroke="midnightblue" d="M1183.44,-171.633C1236.27,-163.511 1339.89,-147.549 1438.75,-132.113"/>
<polygon fill="midnightblue" stroke="midnightblue" points="1439.58,-135.526 1448.92,-130.525 1438.5,-128.61 1439.58,-135.526"/>
</g>
<!-- Node21 -->
<g id="node22" class="node"><title>Node21</title>
<g id="a_node22"><a xlink:href="threads_8h.html" target="_top" xlink:title="ODP Linux helper API. ">
<polygon fill="white" stroke="black" points="1600.5,-112.5 1600.5,-131.5 1716.5,-131.5 1716.5,-112.5 1600.5,-112.5"/>
<text text-anchor="middle" x="1658.5" y="-119.5" font-family="Helvetica,sans-Serif" font-size="10.00">odp/helper/threads.h</text>
</a>
</g>
</g>
<!-- Node0&#45;&gt;Node21 -->
<g id="edge34" class="edge"><title>Node0&#45;&gt;Node21</title>
<path fill="none" stroke="midnightblue" d="M1183.16,-173.7C1257.25,-166.589 1436.5,-149.079 1586.5,-132 1587.77,-131.856 1589.05,-131.709 1590.34,-131.56"/>
<polygon fill="midnightblue" stroke="midnightblue" points="1590.83,-135.025 1600.35,-130.379 1590.01,-128.073 1590.83,-135.025"/>
</g>
<!-- Node25 -->
<g id="node26" class="node"><title>Node25</title>
<g id="a_node26"><a xlink:href="udp_8h.html" target="_top" xlink:title="ODP UDP header. ">
<polygon fill="white" stroke="black" points="1176.5,-112.5 1176.5,-131.5 1274.5,-131.5 1274.5,-112.5 1176.5,-112.5"/>
<text text-anchor="middle" x="1225.5" y="-119.5" font-family="Helvetica,sans-Serif" font-size="10.00">odp/helper/udp.h</text>
</a>
</g>
</g>
<!-- Node0&#45;&gt;Node25 -->
<g id="edge39" class="edge"><title>Node0&#45;&gt;Node25</title>
<path fill="none" stroke="midnightblue" d="M1160.87,-168.324C1172.66,-160.058 1190.63,-147.453 1204.64,-137.632"/>
<polygon fill="midnightblue" stroke="midnightblue" points="1206.98,-140.262 1213.16,-131.655 1202.96,-134.531 1206.98,-140.262"/>
</g>
<!-- Node26 -->
<g id="node27" class="node"><title>Node26</title>
<g id="a_node27"><a xlink:href="version_8h.html" target="_top" xlink:title="ODP helper version. ">
<polygon fill="white" stroke="black" points="1772.5,-112.5 1772.5,-131.5 1886.5,-131.5 1886.5,-112.5 1772.5,-112.5"/>
<text text-anchor="middle" x="1829.5" y="-119.5" font-family="Helvetica,sans-Serif" font-size="10.00">odp/helper/version.h</text>
</a>
</g>
</g>
<!-- Node0&#45;&gt;Node26 -->
<g id="edge42" class="edge"><title>Node0&#45;&gt;Node26</title>
<path fill="none" stroke="midnightblue" d="M1183.29,-175.075C1276.58,-169.773 1540.04,-153.888 1758.5,-132 1759.61,-131.889 1760.73,-131.774 1761.86,-131.656"/>
<polygon fill="midnightblue" stroke="midnightblue" points="1762.62,-135.095 1772.18,-130.528 1761.86,-128.136 1762.62,-135.095"/>
</g>
<!-- Node2 -->
<g id="node3" class="node"><title>Node2</title>
<polygon fill="white" stroke="#bfbfbf" points="0,-56.5 0,-75.5 75,-75.5 75,-56.5 0,-56.5"/>
<text text-anchor="middle" x="37.5" y="-63.5" font-family="Helvetica,sans-Serif" font-size="10.00">odp/config.h</text>
</g>
<!-- Node1&#45;&gt;Node2 -->
<g id="edge2" class="edge"><title>Node1&#45;&gt;Node2</title>
<path fill="none" stroke="midnightblue" d="M114.719,-112.324C100.233,-103.822 77.9269,-90.7288 61.0068,-80.7975"/>
<polygon fill="midnightblue" stroke="midnightblue" points="62.6406,-77.6981 52.2447,-75.6545 59.0972,-83.735 62.6406,-77.6981"/>
</g>
<!-- Node3 -->
<g id="node4" class="node"><title>Node3</title>
<polygon fill="white" stroke="#bfbfbf" points="93,-56.5 93,-75.5 142,-75.5 142,-56.5 93,-56.5"/>
<text text-anchor="middle" x="117.5" y="-63.5" font-family="Helvetica,sans-Serif" font-size="10.00">stdio.h</text>
</g>
<!-- Node1&#45;&gt;Node3 -->
<g id="edge3" class="edge"><title>Node1&#45;&gt;Node3</title>
<path fill="none" stroke="midnightblue" d="M127.518,-112.083C125.928,-104.927 123.641,-94.6353 121.654,-85.6911"/>
<polygon fill="midnightblue" stroke="midnightblue" points="125.031,-84.7537 119.445,-75.7511 118.197,-86.2722 125.031,-84.7537"/>
</g>
<!-- Node4 -->
<g id="node5" class="node"><title>Node4</title>
<polygon fill="white" stroke="#bfbfbf" points="160,-56.5 160,-75.5 211,-75.5 211,-56.5 160,-56.5"/>
<text text-anchor="middle" x="185.5" y="-63.5" font-family="Helvetica,sans-Serif" font-size="10.00">stdlib.h</text>
</g>
<!-- Node1&#45;&gt;Node4 -->
<g id="edge4" class="edge"><title>Node1&#45;&gt;Node4</title>
<path fill="none" stroke="midnightblue" d="M138.497,-112.324C146.694,-104.42 159.006,-92.5482 168.972,-82.9377"/>
<polygon fill="midnightblue" stroke="midnightblue" points="171.57,-85.2947 176.339,-75.8339 166.711,-80.2558 171.57,-85.2947"/>
</g>
<!-- Node6 -->
<g id="node7" class="node"><title>Node6</title>
<polygon fill="white" stroke="#bfbfbf" points="1324,-0.5 1324,-19.5 1387,-19.5 1387,-0.5 1324,-0.5"/>
<text text-anchor="middle" x="1355.5" y="-7.5" font-family="Helvetica,sans-Serif" font-size="10.00">odp_api.h</text>
</g>
<!-- Node5&#45;&gt;Node6 -->
<g id="edge6" class="edge"><title>Node5&#45;&gt;Node6</title>
<path fill="none" stroke="midnightblue" d="M1181.3,-56.4435C1217.19,-47.0797 1274.82,-32.0467 1313.88,-21.8585"/>
<polygon fill="midnightblue" stroke="midnightblue" points="1315.08,-25.1617 1323.87,-19.2508 1313.31,-18.3884 1315.08,-25.1617"/>
</g>
<!-- Node7&#45;&gt;Node8 -->
<g id="edge8" class="edge"><title>Node7&#45;&gt;Node8</title>
<path fill="none" stroke="midnightblue" d="M724.711,-112.444C692.671,-103.241 641.567,-88.5617 606.147,-78.3879"/>
<polygon fill="midnightblue" stroke="midnightblue" points="606.727,-74.9132 596.15,-75.5164 604.795,-81.6412 606.727,-74.9132"/>
</g>
<!-- Node9 -->
<g id="node10" class="node"><title>Node9</title>
<polygon fill="white" stroke="#bfbfbf" points="633,-0.5 633,-19.5 686,-19.5 686,-0.5 633,-0.5"/>
<text text-anchor="middle" x="659.5" y="-7.5" font-family="Helvetica,sans-Serif" font-size="10.00">stdint.h</text>
</g>
<!-- Node8&#45;&gt;Node9 -->
<g id="edge9" class="edge"><title>Node8&#45;&gt;Node9</title>
<path fill="none" stroke="midnightblue" d="M581.442,-56.324C596.085,-47.8215 618.634,-34.7288 635.738,-24.7975"/>
<polygon fill="midnightblue" stroke="midnightblue" points="637.705,-27.7027 644.595,-19.6545 634.19,-21.6491 637.705,-27.7027"/>
</g>
<!-- Node8&#45;&gt;Node10 -->
<g id="edge10" class="edge"><title>Node8&#45;&gt;Node10</title>
<path fill="none" stroke="midnightblue" d="M540.514,-56.4435C512.804,-47.3196 468.748,-32.8133 437.884,-22.6509"/>
<polygon fill="midnightblue" stroke="midnightblue" points="438.958,-19.3196 428.365,-19.5164 436.768,-25.9684 438.958,-19.3196"/>
</g>
<!-- Node11&#45;&gt;Node6 -->
<g id="edge12" class="edge"><title>Node11&#45;&gt;Node6</title>
<path fill="none" stroke="midnightblue" d="M1485.1,-56.4435C1459.3,-47.3986 1418.42,-33.064 1389.48,-22.9158"/>
<polygon fill="midnightblue" stroke="midnightblue" points="1390.38,-19.5226 1379.79,-19.5164 1388.07,-26.1283 1390.38,-19.5226"/>
</g>
<!-- Node12&#45;&gt;Node8 -->
<g id="edge14" class="edge"><title>Node12&#45;&gt;Node8</title>
<path fill="none" stroke="midnightblue" d="M412.497,-112.444C443.685,-103.241 493.43,-88.5617 527.908,-78.3879"/>
<polygon fill="midnightblue" stroke="midnightblue" points="529.038,-81.7036 537.639,-75.5164 527.057,-74.9898 529.038,-81.7036"/>
</g>
<!-- Node13&#45;&gt;Node6 -->
<g id="edge16" class="edge"><title>Node13&#45;&gt;Node6</title>
<path fill="none" stroke="midnightblue" d="M1819.81,-57.0774C1817,-56.6997 1814.22,-56.3377 1811.5,-56 1659.26,-37.0828 1477.63,-21.1309 1397.27,-14.4112"/>
<polygon fill="midnightblue" stroke="midnightblue" points="1397.33,-10.9039 1387.07,-13.5625 1396.75,-17.8798 1397.33,-10.9039"/>
</g>
<!-- Node14&#45;&gt;Node5 -->
<g id="edge19" class="edge"><title>Node14&#45;&gt;Node5</title>
<path fill="none" stroke="midnightblue" d="M1088.07,-112.324C1098.92,-104.185 1115.38,-91.8395 1128.38,-82.0874"/>
<polygon fill="midnightblue" stroke="midnightblue" points="1130.82,-84.6339 1136.72,-75.8339 1126.62,-79.0339 1130.82,-84.6339"/>
</g>
<!-- Node14&#45;&gt;Node6 -->
<g id="edge18" class="edge"><title>Node14&#45;&gt;Node6</title>
<path fill="none" stroke="midnightblue" d="M1055.89,-112.408C1029.85,-100.374 990.57,-77.5519 1009.5,-56 1029.31,-33.4497 1225.83,-18.8441 1313.57,-13.3978"/>
<polygon fill="midnightblue" stroke="midnightblue" points="1313.94,-16.8816 1323.71,-12.7791 1313.52,-9.89464 1313.94,-16.8816"/>
</g>
<!-- Node15 -->
<g id="node16" class="node"><title>Node15</title>
<polygon fill="white" stroke="#bfbfbf" points="1019,-56.5 1019,-75.5 1072,-75.5 1072,-56.5 1019,-56.5"/>
<text text-anchor="middle" x="1045.5" y="-63.5" font-family="Helvetica,sans-Serif" font-size="10.00">string.h</text>
</g>
<!-- Node14&#45;&gt;Node15 -->
<g id="edge20" class="edge"><title>Node14&#45;&gt;Node15</title>
<path fill="none" stroke="midnightblue" d="M1071.38,-112.083C1067.09,-104.613 1060.84,-93.7244 1055.56,-84.5199"/>
<polygon fill="midnightblue" stroke="midnightblue" points="1058.54,-82.6811 1050.52,-75.7511 1052.47,-86.1662 1058.54,-82.6811"/>
</g>
<!-- Node16&#45;&gt;Node6 -->
<g id="edge22" class="edge"><title>Node16&#45;&gt;Node6</title>
<path fill="none" stroke="midnightblue" d="M1322.11,-56.083C1327.76,-48.4554 1336.04,-37.2645 1342.95,-27.9408"/>
<polygon fill="midnightblue" stroke="midnightblue" points="1345.88,-29.87 1349.02,-19.7511 1340.25,-25.7034 1345.88,-29.87"/>
</g>
<!-- Node17&#45;&gt;Node8 -->
<g id="edge25" class="edge"><title>Node17&#45;&gt;Node8</title>
<path fill="none" stroke="midnightblue" d="M877.031,-112.444C809.238,-102.523 697.96,-86.2381 628.642,-76.094"/>
<polygon fill="midnightblue" stroke="midnightblue" points="629.131,-72.6283 618.729,-74.6433 628.117,-79.5545 629.131,-72.6283"/>
</g>
<!-- Node17&#45;&gt;Node9 -->
<g id="edge24" class="edge"><title>Node17&#45;&gt;Node9</title>
<path fill="none" stroke="midnightblue" d="M913.843,-112.368C865.171,-92.9703 746.991,-45.8696 690.531,-23.3673"/>
<polygon fill="midnightblue" stroke="midnightblue" points="691.642,-20.0425 681.057,-19.5914 689.05,-26.5451 691.642,-20.0425"/>
</g>
<!-- Node18&#45;&gt;Node8 -->
<g id="edge27" class="edge"><title>Node18&#45;&gt;Node8</title>
<path fill="none" stroke="midnightblue" d="M566.5,-112.083C566.5,-105.006 566.5,-94.8611 566.5,-85.9865"/>
<polygon fill="midnightblue" stroke="midnightblue" points="570,-85.751 566.5,-75.7511 563,-85.7511 570,-85.751"/>
</g>
<!-- Node19&#45;&gt;Node6 -->
<g id="edge29" class="edge"><title>Node19&#45;&gt;Node6</title>
<path fill="none" stroke="midnightblue" d="M1380.98,-112.43C1381.46,-99.8456 1381.52,-75.7231 1376.5,-56 1374.08,-46.4958 1369.67,-36.5532 1365.51,-28.4382"/>
<polygon fill="midnightblue" stroke="midnightblue" points="1368.56,-26.7183 1360.71,-19.5984 1362.4,-30.0571 1368.56,-26.7183"/>
</g>
<!-- Node20&#45;&gt;Node6 -->
<g id="edge32" class="edge"><title>Node20&#45;&gt;Node6</title>
<path fill="none" stroke="midnightblue" d="M1485.44,-112.368C1461.45,-93.6531 1404.4,-49.1509 1374.51,-25.8324"/>
<polygon fill="midnightblue" stroke="midnightblue" points="1376.55,-22.9829 1366.51,-19.5914 1372.24,-28.502 1376.55,-22.9829"/>
</g>
<!-- Node22 -->
<g id="node23" class="node"><title>Node22</title>
<g id="a_node23"><a xlink:href="pthread_8h.html" target="_top" xlink:title="ODP Linux helper for pthreads. ">
<polygon fill="white" stroke="black" points="1575,-56.5 1575,-75.5 1638,-75.5 1638,-56.5 1575,-56.5"/>
<text text-anchor="middle" x="1606.5" y="-63.5" font-family="Helvetica,sans-Serif" font-size="10.00">pthread.h</text>
</a>
</g>
</g>
<!-- Node21&#45;&gt;Node22 -->
<g id="edge35" class="edge"><title>Node21&#45;&gt;Node22</title>
<path fill="none" stroke="midnightblue" d="M1645.03,-112.324C1635.98,-104.654 1624.61,-93.25 1616.38,-83.7999"/>
<polygon fill="midnightblue" stroke="midnightblue" points="1618.9,-81.3573 1609.86,-75.8339 1613.48,-85.7899 1618.9,-81.3573"/>
</g>
<!-- Node23 -->
<g id="node24" class="node"><title>Node23</title>
<polygon fill="white" stroke="#bfbfbf" points="1656,-56.5 1656,-75.5 1713,-75.5 1713,-56.5 1656,-56.5"/>
<text text-anchor="middle" x="1684.5" y="-63.5" font-family="Helvetica,sans-Serif" font-size="10.00">getopt.h</text>
</g>
<!-- Node21&#45;&gt;Node23 -->
<g id="edge37" class="edge"><title>Node21&#45;&gt;Node23</title>
<path fill="none" stroke="midnightblue" d="M1662.79,-112.083C1666.35,-104.691 1671.52,-93.9533 1675.92,-84.8111"/>
<polygon fill="midnightblue" stroke="midnightblue" points="1679.1,-86.2795 1680.29,-75.7511 1672.79,-83.2427 1679.1,-86.2795"/>
</g>
<!-- Node24 -->
<g id="node25" class="node"><title>Node24</title>
<polygon fill="white" stroke="#bfbfbf" points="1731,-56.5 1731,-75.5 1802,-75.5 1802,-56.5 1731,-56.5"/>
<text text-anchor="middle" x="1766.5" y="-63.5" font-family="Helvetica,sans-Serif" font-size="10.00">sys/types.h</text>
</g>
<!-- Node21&#45;&gt;Node24 -->
<g id="edge38" class="edge"><title>Node21&#45;&gt;Node24</title>
<path fill="none" stroke="midnightblue" d="M1675.85,-112.324C1693.17,-103.664 1720.02,-90.2424 1740,-80.249"/>
<polygon fill="midnightblue" stroke="midnightblue" points="1741.81,-83.2572 1749.19,-75.6545 1738.68,-76.9962 1741.81,-83.2572"/>
</g>
<!-- Node22&#45;&gt;Node21 -->
<g id="edge36" class="edge"><title>Node22&#45;&gt;Node21</title>
<path fill="none" stroke="midnightblue" d="M1620.06,-75.7511C1629.07,-83.4046 1640.38,-94.7357 1648.58,-104.144"/>
<polygon fill="midnightblue" stroke="midnightblue" points="1646.03,-106.565 1655.08,-112.083 1651.45,-102.129 1646.03,-106.565"/>
</g>
<!-- Node25&#45;&gt;Node5 -->
<g id="edge41" class="edge"><title>Node25&#45;&gt;Node5</title>
<path fill="none" stroke="midnightblue" d="M1213.13,-112.324C1201.34,-104.058 1183.37,-91.4527 1169.36,-81.6322"/>
<polygon fill="midnightblue" stroke="midnightblue" points="1171.04,-78.5307 1160.84,-75.6545 1167.02,-84.2619 1171.04,-78.5307"/>
</g>
<!-- Node25&#45;&gt;Node6 -->
<g id="edge40" class="edge"><title>Node25&#45;&gt;Node6</title>
<path fill="none" stroke="midnightblue" d="M1227.28,-112.282C1230.47,-98.6203 1238.42,-72.0732 1254.5,-56 1270.84,-39.673 1294.12,-28.7532 1314.22,-21.7643"/>
<polygon fill="midnightblue" stroke="midnightblue" points="1315.37,-25.0723 1323.79,-18.6427 1313.2,-18.4177 1315.37,-25.0723"/>
</g>
</g>
</svg>
