<?xml version="1.0" encoding="UTF-8" standalone="no"?>
<!DOCTYPE svg PUBLIC "-//W3C//DTD SVG 1.1//EN"
 "http://www.w3.org/Graphics/SVG/1.1/DTD/svg11.dtd">
<!-- Generated by graphviz version 2.38.0 (20140413.2041)
 -->
<!-- Title: odph_debug.h Pages: 1 -->
<svg width="219pt" height="84pt"
 viewBox="0.00 0.00 219.00 84.00" xmlns="http://www.w3.org/2000/svg" xmlns:xlink="http://www.w3.org/1999/xlink">
<g id="graph0" class="graph" transform="scale(1 1) rotate(0) translate(4 80)">
<title>odph_debug.h</title>
<polygon fill="white" stroke="none" points="-4,4 -4,-80 215,-80 215,4 -4,4"/>
<!-- Node0 -->
<g id="node1" class="node"><title>Node0</title>
<polygon fill="#bfbfbf" stroke="black" points="75,-56.5 75,-75.5 160,-75.5 160,-56.5 75,-56.5"/>
<text text-anchor="middle" x="117.5" y="-63.5" font-family="Helvetica,sans-Serif" font-size="10.00">odph_debug.h</text>
</g>
<!-- Node1 -->
<g id="node2" class="node"><title>Node1</title>
<polygon fill="white" stroke="#bfbfbf" points="0,-0.5 0,-19.5 75,-19.5 75,-0.5 0,-0.5"/>
<text text-anchor="middle" x="37.5" y="-7.5" font-family="Helvetica,sans-Serif" font-size="10.00">odp/config.h</text>
</g>
<!-- Node0&#45;&gt;Node1 -->
<g id="edge1" class="edge"><title>Node0&#45;&gt;Node1</title>
<path fill="none" stroke="midnightblue" d="M104.647,-56.324C92.2836,-47.979 73.3699,-35.2122 58.7628,-25.3524"/>
<polygon fill="midnightblue" stroke="midnightblue" points="60.5682,-22.3483 50.3215,-19.6545 56.6518,-28.1503 60.5682,-22.3483"/>
</g>
<!-- Node2 -->
<g id="node3" class="node"><title>Node2</title>
<polygon fill="white" stroke="#bfbfbf" points="93,-0.5 93,-19.5 142,-19.5 142,-0.5 93,-0.5"/>
<text text-anchor="middle" x="117.5" y="-7.5" font-family="Helvetica,sans-Serif" font-size="10.00">stdio.h</text>
</g>
<!-- Node0&#45;&gt;Node2 -->
<g id="edge2" class="edge"><title>Node0&#45;&gt;Node2</title>
<path fill="none" stroke="midnightblue" d="M117.5,-56.083C117.5,-49.0059 117.5,-38.8611 117.5,-29.9865"/>
<polygon fill="midnightblue" stroke="midnightblue" points="121,-29.751 117.5,-19.7511 114,-29.7511 121,-29.751"/>
</g>
<!-- Node3 -->
<g id="node4" class="node"><title>Node3</title>
<polygon fill="white" stroke="#bfbfbf" points="160,-0.5 160,-19.5 211,-19.5 211,-0.5 160,-0.5"/>
<text text-anchor="middle" x="185.5" y="-7.5" font-family="Helvetica,sans-Serif" font-size="10.00">stdlib.h</text>
</g>
<!-- Node0&#45;&gt;Node3 -->
<g id="edge3" class="edge"><title>Node0&#45;&gt;Node3</title>
<path fill="none" stroke="midnightblue" d="M128.425,-56.324C138.675,-48.1849 154.221,-35.8395 166.501,-26.0874"/>
<polygon fill="midnightblue" stroke="midnightblue" points="168.721,-28.7937 174.376,-19.8339 164.368,-23.3119 168.721,-28.7937"/>
</g>
</g>
</svg>
